<?xml version="1.0" encoding="UTF-8"?>
<svg width="200px" height="200px" viewBox="0 0 200 200" version="1.1" xmlns="http://www.w3.org/2000/svg" xmlns:xlink="http://www.w3.org/1999/xlink">
    <!-- Generator: Sketch 45.1 (43504) - http://www.bohemiancoding.com/sketch -->
    <title>theater</title>
    <desc>Created with Sketch.</desc>
    <defs></defs>
    <g id="Symbols" stroke="none" stroke-width="1" fill="none" fill-rule="evenodd">
        <g id="theater" fill-rule="nonzero">
            <path d="M132.547023,143.847891 L132.498805,125.792244 L148.830663,130.847343 L141.830906,84.184893 L146.480042,45.5763817 C142.072773,45.3551239 137.49091,45.2462448 132.785779,45.2462448 C131.190312,45.2462448 129.609233,45.2579104 128.044096,45.2808528 C123.333522,118.399357 95.806565,134.999524 95.806565,134.999524 C91.7150459,142.060719 88.5120575,146.675246 84.5014199,149.572596 C93.4283355,170.12235 103.286945,176.357231 103.286945,176.357231 C110.326364,190.838533 116.470253,195.185141 132.684677,195.203417 L132.598352,162.884615 C132.399258,162.882282 132.365428,143.841669 132.547023,143.847891 Z" id="Shape" fill="#5EA69B"></path>
            <path d="M146.480042,45.5767705 L141.830906,84.1852818 L148.830663,130.847732 L132.498805,125.792633 L132.547023,143.848279 L132.597963,162.885393 L132.684288,195.204194 C132.718507,195.204194 132.75156,195.204972 132.786168,195.204972 C149.077974,195.204972 153.734886,191.111898 162.28578,176.358009 C162.28578,176.358009 195.204583,156.506247 195.204583,64.5963852 C195.204583,52.8996644 174.365133,46.9758663 146.480042,45.5767705 Z" id="Shape" fill="#69CAEE"></path>
            <path d="M163.474895,77.3130695 C154.445322,73.1251146 145.261374,74.8730122 142.962471,81.2179388 C140.664345,87.5628655 146.121519,96.1013162 155.151869,100.28966 C164.18222,104.477615 173.365779,102.729328 175.663905,96.3847906 C177.962808,90.0398639 172.506023,81.5014132 163.474895,77.3130695 Z" id="Shape" fill="#EEEEEE"></path>
            <path d="M65.1777216,107.781705 L65.2309945,87.8809479 L48.899137,85.1589716 L58.2320159,50.162134 L54.7665512,4.10357364 C25.8078346,5.22113932 3.88853752,10.8144117 3.88853752,23.2382891 C3.88853752,114.181071 36.8081184,134.999912 36.8081184,134.999912 C43.6776088,149.133191 49.6970649,153.612008 65.0552327,153.836377 L65.1209489,129.28104 L65.1777216,107.781705 Z" id="Shape" fill="#F6931E"></path>
            <ellipse id="Oval" fill="#EEEEEE" transform="translate(40.336146, 47.442852) rotate(-78.766480) translate(-40.336146, -47.442852) " cx="40.336146" cy="47.4428523" rx="12.415188" ry="17.6679918"></ellipse>
            <path d="M66.3073417,3.88892637 C62.363587,3.88892637 58.5069355,3.95969775 54.7661624,4.10396249 L58.231627,50.1625228 L48.8987481,85.1593605 L65.2306057,87.8813367 L65.1773327,107.782094 C65.2928223,107.783649 65.2547146,129.284929 65.1205601,129.281429 L65.0548438,153.836766 C65.4670288,153.842987 65.8815469,153.847654 66.3073417,153.847654 C82.5995362,153.847654 87.2564487,149.754579 95.8061762,135.000301 C95.8061762,135.000301 128.725757,115.148539 128.725757,23.2386779 C128.726146,9.69373517 100.780393,3.88892637 66.3073417,3.88892637 Z" id="Shape" fill="#F9C41C"></path>
            <g id="Group" transform="translate(43.940474, 32.663715)" fill="#EEEEEE">
                <path d="M67.6691076,127.47287 C67.6691076,120.615434 78.3030911,111.168232 88.0621537,111.168232 C97.8216052,111.168232 108.4552,120.615434 108.4552,127.47287 C108.4552,134.330306 97.8212163,130.214289 88.0621537,130.214289 C78.3030911,130.2139 67.6691076,134.329917 67.6691076,127.47287 Z" id="Shape"></path>
                <ellipse id="Oval" transform="translate(48.503825, 14.782171) rotate(172.160778) translate(-48.503825, -14.782171) " cx="48.5038249" cy="14.7821711" rx="17.6695447" ry="12.4155014"></ellipse>
                <path d="M43.1437126,78.3097016 C43.1437126,86.2804258 31.3431678,96.6301573 21.584494,96.6301573 C11.8246537,96.6301573 0.0244977864,86.280037 0.0244977864,78.3097016 C0.0244977864,70.3385886 11.8250426,75.1230451 21.584494,75.1230451 C31.3431678,75.123434 43.1437126,70.3385886 43.1437126,78.3097016 Z" id="Shape"></path>
            </g>
            <g id="Group" fill="#231F20">
                <path d="M173.848735,113.525853 C173.685417,113.50641 173.522098,113.498633 173.362668,113.498633 C171.406734,113.498633 169.750217,114.960723 169.509127,116.904992 C169.505239,116.90888 168.397006,124.83372 166.553839,131.658103 C166.281641,132.661346 166.421629,133.707363 166.938804,134.609503 C167.455591,135.507755 168.292015,136.153253 169.295258,136.42545 C169.629672,136.514887 169.971863,136.557661 170.310166,136.557661 C172.063897,136.557661 173.607646,135.375545 174.062605,133.684031 C176.092421,126.148046 177.049002,119.22256 177.220097,117.912123 C177.220097,117.888792 177.223986,117.873238 177.223986,117.869349 C177.488406,115.742708 175.975765,113.794162 173.848735,113.525853 Z" id="Shape"></path>
                <path d="M166.635498,143.809783 C165.99389,143.382044 165.24729,143.156509 164.481248,143.156509 C163.1747,143.156509 161.965365,143.805894 161.242097,144.890796 C160.666593,145.75794 160.460501,146.792291 160.666593,147.811088 C160.868797,148.829885 161.459855,149.708694 162.32311,150.284198 C162.964719,150.708049 163.707429,150.933584 164.473471,150.933584 L164.47736,150.933584 C165.78002,150.933584 166.993244,150.288086 167.716512,149.199296 C168.902516,147.414457 168.416448,144.996176 166.635498,143.809783 Z" id="Shape"></path>
                <path d="M146.675246,41.6928993 L146.675246,41.6928993 C142.245035,41.4704749 132.372039,41.3596516 132.16478,41.3600404 C132.456809,35.644668 132.614683,29.6112132 132.614683,23.2382891 C132.614683,3.01906053 91.0711041,0.000388853752 66.3073417,0.000388853752 C48.4122921,0.000388853752 26.2262413,2.68931255 17.2172776,5.74920272 C5.79275434,9.62996316 0,15.5140981 0,23.2382891 C0,107.608665 27.9994144,133.224406 33.7505614,137.593178 C41.3091006,152.753808 48.7435955,157.486547 64.9976823,157.724526 L64.9980711,157.724526 C67.7091595,157.826405 78.5200715,156.970538 82.7500226,155.084598 C90.0064225,170.162791 97.5618509,176.896182 100.223944,178.939997 C107.903416,194.338606 120.531831,199.092732 132.690121,199.092732 C144.848411,199.092732 156.274101,194.316441 165.204516,179.072985 C170.805177,175.011408 199.093121,150.244535 199.093121,64.5959964 C199.093121,51.3333615 180.967481,43.413966 146.675246,41.6928993 Z M146.618474,82.5423747 C147.439733,80.2757462 150.122046,78.9225351 153.793603,78.9225351 C156.352261,78.9225351 159.13412,79.5855308 161.838987,80.8403618 C169.569011,84.4255934 173.402331,91.2114803 172.007902,95.0599658 C171.187031,97.3265944 168.505107,98.6794166 164.83355,98.6794166 C162.275281,98.6794166 159.493032,98.0160321 156.788166,96.7615899 C149.058142,93.177136 145.224822,86.3904714 146.618474,82.5423747 Z M61.177583,149.780632 C50.162134,149.709083 46.0500055,145.118665 40.3054691,133.300233 C39.989331,132.64968 39.5250396,132.11734 38.9137615,131.730819 C38.8363796,131.680268 31.0997453,126.481293 23.4338825,110.68411 C16.2914168,95.9652174 7.77707503,68.8465567 7.77707503,23.2382891 C7.77707503,19.2113196 11.794712,15.8045719 19.7187737,13.1129262 C27.3165872,10.5321039 37.8852433,8.86897637 51.172376,8.16087369 L53.2158025,35.3195863 C50.4751612,33.5331921 47.1850696,32.1803699 43.5158456,31.451658 C41.6614021,31.0834135 39.7863493,30.8967637 37.942016,30.8967637 C28.3462719,30.8967637 20.6364686,35.9740271 19.1922658,43.243648 C18.3052904,47.7084668 19.8972576,52.4695921 23.5598711,56.3056344 C26.9242338,59.8294271 31.7549639,62.3616427 37.1623642,63.4356568 C39.0164189,63.8039013 40.8914717,63.9909399 42.735805,63.9909399 C45.6669846,63.9909399 48.4224023,63.5169272 50.8768472,62.6517276 L45.1416432,84.1576732 C44.102626,87.8976686 47.178848,88.8153634 48.2598614,88.9950139 L61.3335134,91.1741503 L61.3004608,103.63808 C60.0187989,103.503147 52.2673882,102.473463 49.9805393,102.473463 C41.0415692,102.473463 40.0764342,108.418259 40.0764342,110.973806 C40.0764342,119.934551 50.6625887,130.318502 61.2234678,132.680789 L61.177583,149.780632 Z M53.8570223,50.1286925 C53.1566967,53.6544295 48.4795638,56.213476 42.735805,56.213476 C41.3989258,56.213476 40.0336603,56.0765995 38.6773384,55.8075127 C34.8809592,55.0535253 31.4209385,53.2776302 29.1846406,50.9351752 C28.0740743,49.7721136 26.290791,47.423437 26.820021,44.7586222 C27.5203466,41.2328853 32.1974795,38.6734499 37.9412383,38.6734499 C39.2781175,38.6734499 40.643383,38.8103264 42.0000937,39.0794132 C49.3276538,40.5352816 54.7576076,45.5950466 53.8570223,50.1286925 Z M65.23255,125.394058 C54.5367387,125.394058 47.5319272,114.014642 47.8535092,110.973417 C48.0238272,109.365118 54.0211186,110.546455 56.4211239,110.869982 C63.2859481,111.795454 66.5425983,112.135701 74.6307563,110.871926 C77.0237623,110.498237 83.1178783,109.365118 83.1960379,110.973417 C83.3208599,113.549184 76.5069756,125.394058 65.23255,125.394058 Z M68.9542692,149.919453 L69.000154,132.860828 C73.5551868,132.037236 78.3205895,129.663283 82.4988231,126.072219 C87.8844476,121.443693 90.9727241,115.940635 90.9727241,110.973806 C90.9727241,108.418259 90.0079779,102.474629 81.0721187,102.474629 C78.7844921,102.474629 70.5746228,103.566142 69.077147,103.708073 C69.077147,103.708073 69.114477,87.654635 69.1043668,87.5379789 C68.9507695,85.7885258 67.6313888,84.3392679 65.8702701,84.0456833 L53.7590312,82.0271435 L61.9891208,51.1645989 C62.1014996,50.7434703 62.1423292,50.3060099 62.1096655,49.8708825 L58.9490622,7.86417827 C61.3517895,7.80662792 63.8136226,7.77746389 66.3077306,7.77746389 C106.739577,7.77746389 124.709287,15.5440399 124.837997,23.2382891 C125.405724,57.1618903 118.989637,93.3252892 105.650787,117.576931 C105.647676,117.582764 105.644176,117.58743 105.641065,117.593263 C100.971321,125.374227 96.74798,129.335091 94.8527068,130.878063 C94.8492071,130.881173 94.8457074,130.883895 94.8418189,130.887006 C94.7551045,130.957389 93.2607395,131.691934 92.4425912,133.050589 C88.6497117,139.34652 85.2239102,149.919453 68.9542692,149.919453 Z M106.783906,174.65794 C106.467768,174.007388 106.003477,173.475047 105.392199,173.088526 C105.306651,173.032142 97.1465551,167.536861 89.2664338,150.682773 C93.6651474,146.403437 96.2832997,141.88729 98.7253013,137.7145 C103.560698,134.208206 125.294123,115.275306 131.154149,55.0892998 C131.154149,55.0881333 131.154538,55.0873556 131.154538,55.086189 C131.343521,53.1454199 131.516949,51.1638212 131.671713,49.1363378 C135.221559,49.1235056 138.732908,49.1736677 142.117103,49.2864353 L137.970366,83.7202127 C137.928759,84.0666814 137.933814,84.4170387 137.985531,84.7619519 L144.066815,125.302289 L133.648646,122.077524 C133.500881,122.03164 132.597185,121.892819 132.296212,121.908373 C131.54378,121.947647 130.808458,122.205457 130.187069,122.665083 C129.565292,123.124708 128.610268,123.922247 128.610268,125.802355 L128.648764,140.238939 C118.254703,142.02961 107.721044,151.621077 107.721044,160.135808 C107.721044,166.817871 114.519374,167.990654 117.118084,167.990654 C119.194174,167.990654 127.133012,167.035629 128.719924,166.90964 L128.784863,191.213 C117.372394,190.572557 112.655598,186.736904 106.783906,174.65794 Z M123.034105,159.696403 C120.819194,159.95849 115.489564,161.471909 115.498897,160.08409 C115.566946,155.729706 122.437603,147.728262 132.24955,147.728262 C142.061497,147.728262 148.44142,155.830808 148.507525,160.084479 C148.445309,161.277482 143.170896,160.047927 140.968429,159.697958 C135.612746,158.847146 129.391086,158.94436 123.034105,159.696403 Z M175.685292,152.357955 C168.038483,168.027595 160.324791,172.997923 160.277739,173.027865 C159.716623,173.366168 159.249999,173.840958 158.921417,174.407907 C151.70157,186.865226 148.266047,190.64644 136.562327,191.231276 L136.497777,167.020463 C137.684559,167.136342 144.808359,167.992209 146.884838,167.992209 C155.36885,167.992209 156.2846,162.498094 156.2846,160.136197 C156.2846,151.934104 146.506095,142.671219 136.426617,140.448142 L136.401341,131.070934 L147.680822,134.562063 C149.417054,134.972693 150.543175,134.338083 150.549396,134.335361 C151.838058,133.701919 152.726977,132.380205 152.726977,130.847343 C152.726977,130.563091 148.241938,100.709622 148.241938,100.709622 C149.840516,101.882405 151.60669,102.931532 153.515961,103.816952 C157.239236,105.543852 161.153049,106.456492 164.83355,106.456492 C171.92041,106.456492 177.335976,103.186232 179.319908,97.7088376 C182.33508,89.3869785 176.093977,78.8785947 165.111191,73.7849994 C161.387917,72.0580999 157.474493,71.1454601 153.793603,71.1454601 C151.372211,71.1454601 149.146023,71.5273145 147.185034,72.2482493 L149.903899,49.6706228 C162.405158,50.5016033 172.752945,52.2911083 179.987181,54.8847628 C185.155047,56.7384286 191.316046,59.9278071 191.316046,64.5959964 C191.316046,110.659612 182.816092,137.746775 175.685292,152.357955 Z" id="Shape"></path>
                <path d="M108.671403,57.2828239 C112.554496,53.6699837 114.425272,49.0115157 113.803883,44.5019788 C112.727925,36.6891292 104.471004,31.0188638 94.1706573,31.0188638 C92.8648864,31.0188638 91.5361731,31.1106333 90.2218475,31.2914502 C78.2455408,32.9413567 69.8408558,41.3281544 71.0886875,50.3857249 C72.1646458,58.1981856 80.4219552,63.868451 90.7215245,63.868451 C92.0276843,63.868451 93.3563975,63.7766815 94.6707232,63.5954757 C100.132174,62.8434325 105.104447,60.6013018 108.671403,57.2828239 Z M90.7219134,56.091376 C84.4528132,56.091376 79.3246099,53.1819722 78.7930468,49.324543 C78.1623261,44.7454012 83.8819759,40.0153842 91.2834182,38.9958096 C92.2473866,38.8632105 93.2187433,38.7959388 94.1710462,38.7959388 C100.440535,38.7959388 105.56835,41.7049537 106.099913,45.5631606 C106.47049,48.2544175 104.551108,50.4938262 103.374048,51.5888384 C101.002818,53.7948057 97.444417,55.3630529 93.610319,55.8911163 C92.6459617,56.0241043 91.6742162,56.091376 90.7219134,56.091376 Z" id="Shape"></path>
            </g>
        </g>
    </g>
</svg>