<?xml version="1.0" encoding="UTF-8"?>
<svg width="200px" height="200px" viewBox="0 0 200 200" version="1.1" xmlns="http://www.w3.org/2000/svg" xmlns:xlink="http://www.w3.org/1999/xlink">
    <!-- Generator: Sketch 45.1 (43504) - http://www.bohemiancoding.com/sketch -->
    <title>arrow</title>
    <desc>Created with Sketch.</desc>
    <defs></defs>
    <g id="Symbols" stroke="none" stroke-width="1" fill="none" fill-rule="evenodd">
        <g id="arrow" fill-rule="nonzero">
            <g id="Group" transform="translate(0.000000, 19.858474)" fill="#29485A">
                <polygon id="Shape" points="16.6137553 0.0708674963 59.8090518 0.0708674963 59.8090518 6.71644749 16.6137553 6.71644749"></polygon>
                <polygon id="Shape" points="16.6137553 13.3620275 59.8090518 13.3620275 59.8090518 20.0076075 16.6137553 20.0076075"></polygon>
                <polygon id="Shape" points="16.6137553 26.6527981 46.5182812 26.6527981 46.5182812 33.2983781 16.6137553 33.2983781"></polygon>
                <polygon id="Shape" points="16.6137553 39.9435687 46.5182812 39.9435687 46.5182812 46.5891487 16.6137553 46.5891487"></polygon>
                <polygon id="Shape" points="0 172.852832 199.363506 172.852832 199.363506 179.498412 0 179.498412"></polygon>
            </g>
            <g id="Group" transform="translate(12.849601, 1.946909)" fill="#ED1C24">
                <path d="M0.723860855,147.568711 L0.158867794,140.923131 C69.5938282,134.905624 129.067233,88.7728311 152.156798,23.0128566 L160.131338,0.272567293 L166.404669,2.46556586 L158.430129,25.2062445 C134.483534,93.4450239 72.7735204,141.325363 0.723860855,147.568711 Z" id="Shape"></path>
                <polygon id="Shape" points="3.76415432 160.859871 27.0231002 160.859871 27.0231002 180.796222 3.76415432 180.796222"></polygon>
            </g>
            <polygon id="Shape" fill="#FBB03B" points="53.1634718 152.838605 76.4224177 152.838605 76.4224177 182.743131 53.1634718 182.743131"></polygon>
            <polygon id="Shape" fill="#F8CF26" points="89.7135777 136.22485 112.972524 136.22485 112.972524 182.743131 89.7135777 182.743131"></polygon>
            <polygon id="Shape" fill="#39B54A" points="126.263684 112.965904 149.522629 112.965904 149.522629 182.743131 126.263684 182.743131"></polygon>
            <polygon id="Shape" fill="#0071BC" points="162.8134 66.4476229 186.072346 66.4476229 186.072346 182.743131 162.8134 182.743131"></polygon>
            <path d="M189.395331,33.2205017 C188.12945,33.2271212 186.969871,32.5161099 186.404878,31.3830088 L174.602714,7.79153077 L151.008121,19.597199 C149.366877,20.4180159 147.369737,19.7502261 146.54892,18.1085922 C145.728103,16.4673477 146.395893,14.4702082 148.037527,13.6493913 L174.619458,0.358620682 C176.260702,-0.462196253 178.257842,0.202478561 179.078659,1.84372305 L179.078659,1.84722748 L192.369429,28.4291581 C193.180122,30.073907 192.502208,32.0675421 190.857459,32.8782351 C190.402272,33.1005721 189.903863,33.2205017 189.395331,33.2205017 Z" id="Shape" fill="#ED1C24"></path>
        </g>
    </g>
</svg>