<?xml version="1.0" encoding="UTF-8"?>
<svg width="200px" height="200px" viewBox="0 0 200 200" version="1.1" xmlns="http://www.w3.org/2000/svg" xmlns:xlink="http://www.w3.org/1999/xlink">
    <!-- Generator: Sketch 45.1 (43504) - http://www.bohemiancoding.com/sketch -->
    <title>knowledge</title>
    <desc>Created with Sketch.</desc>
    <defs></defs>
    <g id="Symbols" stroke="none" stroke-width="1" fill="none" fill-rule="evenodd">
        <g id="knowledge" fill-rule="nonzero">
            <path d="M88.2295076,135.108975 L196.029126,135.108975 L196.029126,196.026393 L88.2295076,196.026393 C71.4077094,196.026393 57.7707987,182.389482 57.7707987,165.567684 L57.7707987,165.567684 C57.7707987,148.745886 71.4073189,135.108975 88.2295076,135.108975 Z" id="Shape" fill="#EDF2FA"></path>
            <polygon id="Shape" fill="#FFB9B7" points="169.47538 180.016046 156.198507 172.596617 142.921634 180.016046 142.921634 135.108975 169.47538 135.108975"></polygon>
            <path d="M57.7707987,165.567684 L57.7707987,165.567684 C57.7707987,148.745886 71.4077094,135.108975 88.2295076,135.108975 L34.3636715,135.108975 C17.5418733,135.108975 3.90496267,148.745886 3.90496267,165.567684 L3.90496267,165.567684 C3.90496267,182.389482 17.5418733,196.026393 34.3636715,196.026393 L88.2295076,196.026393 C71.4073189,196.026393 57.7707987,182.389482 57.7707987,165.567684 Z" id="Shape" fill="#FF5D5D"></path>
            <path d="M94.0842181,78.8775125 L196.029126,78.8775125 L196.029126,135.108975 L94.0842181,135.108975 C78.5565245,135.108975 65.9684869,122.521328 65.9684869,106.993244 L65.9684869,106.993244 C65.9684869,91.4651596 78.5565245,78.8775125 94.0842181,78.8775125 Z" id="Shape" fill="#FFFFFF"></path>
            <path d="M65.9684869,106.993244 L65.9684869,106.993244 C65.9684869,91.4651596 78.556134,78.8775125 94.0842181,78.8775125 L53.1074923,78.8775125 C37.5797988,78.8775125 24.9917611,91.4651596 24.9917611,106.993244 L24.9917611,106.993244 C24.9917611,122.520937 37.5794083,135.108975 53.1074923,135.108975 L94.0842181,135.108975 C78.5565245,135.108975 65.9684869,122.521328 65.9684869,106.993244 Z" id="Shape" fill="#FFC66C"></path>
            <path d="M110.689681,48.1513137 L110.695929,48.1450658 C110.679138,48.0497847 108.470101,25.9797166 120.732074,13.9454027 C133.001467,1.91030774 154.691972,4.04476033 154.787253,4.05335125 L154.790377,4.05022728 L154.785691,4.05491324 L154.788425,4.05217976 L154.78491,4.05569423 C154.802092,4.23922747 157.513698,26.7677381 145.27164,38.7817463 C132.98038,50.8465189 110.689681,48.1513137 110.689681,48.1513137 Z" id="Shape" fill="#62CD4D"></path>
            <path d="M75.7488564,38.7821368 C63.5067984,26.7681286 66.2184045,4.23961797 66.2355863,4.05608473 L66.2320718,4.05257026 L66.2348053,4.05530373 L66.2301194,4.05061778 L66.2332433,4.05374175 C66.3289149,4.04476033 88.0194206,1.91069823 100.288423,13.9457932 C112.550396,25.9801071 110.341359,48.0501752 110.324567,48.1454562 L110.330815,48.1517042 C110.331206,48.1513137 88.0405074,50.8465189 75.7488564,38.7821368 Z" id="Shape" fill="#A0E557"></path>
            <path d="M112.170053,171.815624 L88.2244311,171.815624 C86.0677202,171.815624 84.3194684,173.563876 84.3194684,175.720587 C84.3194684,177.877298 86.0677202,179.625549 88.2244311,179.625549 L112.170053,179.625549 C114.326764,179.625549 116.075015,177.877298 116.075015,175.720587 C116.075015,173.563876 114.326764,171.815624 112.170053,171.815624 Z" id="Shape" fill="#000000"></path>
            <path d="M126.899572,171.815624 C125.872567,171.815624 124.865086,172.233455 124.138763,172.959778 C123.41244,173.686101 122.994609,174.693581 122.994609,175.720587 C122.994609,176.747592 123.41244,177.755072 124.138763,178.481395 C124.865086,179.207718 125.872567,179.625549 126.899572,179.625549 C127.926577,179.625549 128.934057,179.207718 129.66038,178.481395 C130.386704,177.755072 130.804535,176.747592 130.804535,175.720587 C130.804535,174.693581 130.386704,173.686101 129.66038,172.959778 C128.934057,172.233455 127.926577,171.815624 126.899572,171.815624 Z" id="Shape" fill="#000000"></path>
            <path d="M196.029126,74.9725498 L114.415406,74.9725498 L114.415406,52.298384 C114.955463,52.3128324 115.537302,52.3214233 116.158191,52.3214233 C124.181718,52.3214233 138.530113,50.8711202 148.007067,41.5687181 C160.761846,29.0517508 159.03351,7.15193913 158.688701,3.83076838 C158.635594,2.89318684 158.245488,1.97122516 157.522289,1.26247443 C156.829549,0.583791919 155.947808,0.215553939 155.049667,0.156198507 C153.107338,-0.0136673693 131.031413,-1.62680745 117.997038,11.1580403 C114.600892,14.4913165 112.200902,18.4532916 110.510444,22.5355396 C108.819595,18.4532916 106.419605,14.490926 103.023459,11.1580403 C90.0511726,-1.56628053 68.1212928,-0.027725235 66.0098795,0.153465033 C65.0988517,0.205401036 64.2022723,0.575591498 63.4997695,1.26403642 C62.7937522,1.95560531 62.4063799,2.85062275 62.3392146,3.765946 C62.0154932,6.80752142 60.1590739,28.9541267 73.01343,41.5694991 C82.4915554,50.8726822 96.8395598,52.3225948 104.862696,52.3222043 C105.483585,52.3222043 106.065425,52.3132229 106.60509,52.299165 L106.60509,74.9733308 L99.9666539,74.9733308 L94.0838276,74.9733308 L53.1074923,74.9733308 C35.4512036,74.9733308 21.0867984,89.337736 21.0867984,106.994025 C21.0867984,116.693952 25.4283359,125.393818 32.2631921,131.270787 C14.2898204,132.359491 0,147.32487 0,165.567684 C0,184.515734 15.4156211,199.931355 34.3636715,199.931355 L196.029126,199.931355 C198.185837,199.931355 199.934089,198.183103 199.934089,196.026393 L199.934089,135.108975 L199.934089,78.8775125 C199.934089,76.7208016 198.185837,74.9725498 196.029126,74.9725498 Z M123.466329,16.7331555 C131.599194,8.75609779 144.947919,7.78220011 151.113464,7.81968775 C151.302855,14.1535372 150.683528,27.9993633 142.536214,35.9951649 C134.369765,44.0108818 120.679357,44.6470002 114.43415,44.4732294 C114.37089,38.3057313 115.253802,24.7937795 123.466329,16.7331555 Z M106.586347,44.4806488 C100.354417,44.663401 86.6862663,44.0456359 78.4846732,35.9955554 L78.4846732,35.9955554 C70.3373591,28.0001443 69.7184225,14.1535372 69.9078132,7.81968775 C76.0686728,7.79430549 89.4197402,8.75414531 97.5537774,16.732765 C105.770209,24.796513 106.650778,38.3162747 106.586347,44.4806488 Z M146.826596,139.013938 L165.570417,139.013938 L165.570417,173.360427 L158.103348,169.187584 C157.511355,168.856834 156.854931,168.691263 156.198507,168.691263 C155.542083,168.691263 154.885658,168.856443 154.293666,169.187584 L146.826596,173.360427 L146.826596,139.013938 Z M192.124163,139.013938 L192.124163,151.509818 L173.380343,151.509818 L173.380343,139.013938 L192.124163,139.013938 Z M173.380343,159.319743 L192.124163,159.319743 L192.124163,171.815624 L173.380343,171.815624 L173.380343,159.319743 Z M99.9670444,82.7824751 L192.124163,82.7824751 L192.124163,93.7163706 L94.5000966,93.7163706 C92.3433857,93.7163706 90.5951339,95.4646224 90.5951339,97.6213333 C90.5951339,99.7780442 92.3433857,101.526296 94.5000966,101.526296 L192.124163,101.526296 L192.124163,131.204012 L94.0842181,131.204012 C80.7343222,131.204012 69.8734495,120.34314 69.8734495,106.993244 C69.8734495,93.6433478 80.7343222,82.7824751 94.0842181,82.7824751 L99.9670444,82.7824751 L99.9670444,82.7824751 Z M28.8967238,106.993244 C28.8967238,93.6433478 39.7575964,82.7824751 53.1074923,82.7824751 L73.1637711,82.7824751 C66.373041,88.658663 62.0635242,97.3292421 62.0635242,106.993244 C62.0635242,116.657245 66.3726505,125.327824 73.1637711,131.204012 L53.1074923,131.204012 C39.7575964,131.204012 28.8967238,120.34314 28.8967238,106.993244 Z M34.3636715,192.12143 C19.722014,192.12143 7.80992534,180.209341 7.80992534,165.567684 C7.80992534,150.926026 19.722014,139.013938 34.3636715,139.013938 L66.4413778,139.013938 C58.7681262,145.321233 53.8654456,154.882534 53.8654456,165.567684 C53.8654456,176.252833 58.7681262,185.814134 66.4413778,192.12143 L34.3636715,192.12143 Z M99.9670444,192.12143 L88.2291171,192.12143 C73.5874595,192.12143 61.6753709,180.209341 61.6753709,165.567684 C61.6753709,150.926026 73.5874595,139.013938 88.2291171,139.013938 L139.016671,139.013938 L139.016671,151.509818 L88.2244311,151.509818 C86.0677202,151.509818 84.3194684,153.25807 84.3194684,155.414781 C84.3194684,157.571492 86.0677202,159.319743 88.2244311,159.319743 L139.016671,159.319743 L139.016671,180.016046 C139.016671,181.401526 139.750414,182.683135 140.945332,183.384076 C142.140251,184.085017 143.616717,184.100637 144.826475,183.424688 L156.198507,177.070142 L167.570539,183.425078 C168.162922,183.756219 168.819346,183.921399 169.47538,183.921399 C170.158748,183.921399 170.842117,183.742161 171.451681,183.384466 C172.6466,182.683526 173.380343,181.401917 173.380343,180.016436 L173.380343,179.62594 L192.124163,179.62594 L192.124163,192.12182 L99.9670444,192.12143 L99.9670444,192.12143 Z" id="Shape" fill="#000000"></path>
            <path d="M94.5000966,120.270117 L160.688433,120.270117 C162.845144,120.270117 164.593396,118.521865 164.593396,116.365154 C164.593396,114.208443 162.845144,112.460191 160.688433,112.460191 L94.5000966,112.460191 C92.3433857,112.460191 90.5951339,114.208443 90.5951339,116.365154 C90.5951339,118.521865 92.3433857,120.270117 94.5000966,120.270117 Z" id="Shape" fill="#000000"></path>
            <path d="M178.261546,120.270117 C179.288551,120.270117 180.296031,119.852286 181.022354,119.125963 C181.752583,118.39964 182.166509,117.392159 182.166509,116.365154 C182.166509,115.338149 181.752583,114.330669 181.022354,113.604345 C180.296031,112.878022 179.288551,112.460191 178.261546,112.460191 C177.234541,112.460191 176.22706,112.878022 175.500737,113.604345 C174.774414,114.330669 174.356583,115.338149 174.356583,116.365154 C174.356583,117.392159 174.774414,118.39964 175.500737,119.125963 C176.22706,119.852286 177.234541,120.270117 178.261546,120.270117 Z" id="Shape" fill="#000000"></path>
        </g>
    </g>
</svg>