<?xml version="1.0" encoding="UTF-8"?>
<svg width="200px" height="200px" viewBox="0 0 200 200" version="1.1" xmlns="http://www.w3.org/2000/svg" xmlns:xlink="http://www.w3.org/1999/xlink">
    <!-- Generator: Sketch 45.1 (43504) - http://www.bohemiancoding.com/sketch -->
    <title>Group 3</title>
    <desc>Created with Sketch.</desc>
    <defs></defs>
    <g id="Symbols" stroke="none" stroke-width="1" fill="none" fill-rule="evenodd">
        <g id="Group-3" fill-rule="nonzero">
            <g id="others-icon" fill="#000000">
                <path d="M99.5195051,0 C44.5400561,0 0,44.5400561 0,99.5195051 C0,154.498954 44.5400561,199.03901 99.5195051,199.03901 C154.498954,199.03901 199.03901,154.498954 199.03901,99.5195051 C198.91715,44.5400561 154.377094,0 99.5195051,0 Z M49.7597526,114.813013 C41.3107497,114.813013 34.4662449,107.968508 34.4662449,99.5195051 C34.4662449,91.0705022 41.3107497,84.2259975 49.7597526,84.2259975 C58.2087554,84.2259975 65.0532602,91.0705022 65.0532602,99.5195051 C65.0532602,107.988818 58.2087554,114.813013 49.7597526,114.813013 Z M99.5195051,114.813013 C91.0501921,114.813013 84.2259975,107.968508 84.2259975,99.5195051 C84.2259975,91.0705022 91.0705022,84.2259975 99.5195051,84.2259975 C107.968508,84.2259975 114.813013,91.0705022 114.813013,99.5195051 C114.813013,107.988818 107.988818,114.813013 99.5195051,114.813013 Z M149.279258,114.813013 C140.830255,114.813013 133.98575,107.968508 133.98575,99.5195051 C133.98575,91.0705022 140.830255,84.2259975 149.279258,84.2259975 C157.728261,84.2259975 164.572765,91.0705022 164.572765,99.5195051 C164.572765,107.988818 157.748571,114.813013 149.279258,114.813013 Z" id="Shape"></path>
            </g>
            <g id="ellipsis-(1)" transform="translate(26.595745, 80.851064)">
                <circle id="Oval" fill="#FFB200" cx="19.3783564" cy="19.4003257" r="19.3783564"></circle>
                <circle id="Oval" fill="#E21B1B" cx="73.0396754" cy="19.4003257" r="19.3783564"></circle>
                <circle id="Oval" fill="#FFB200" cx="126.700994" cy="19.4003257" r="19.3783564"></circle>
            </g>
        </g>
    </g>
</svg>