<?xml version="1.0" encoding="UTF-8"?>
<svg width="205px" height="200px" viewBox="0 0 205 200" version="1.1" xmlns="http://www.w3.org/2000/svg" xmlns:xlink="http://www.w3.org/1999/xlink">
    <!-- Generator: Sketch 45.1 (43504) - http://www.bohemiancoding.com/sketch -->
    <title>heart</title>
    <desc>Created with Sketch.</desc>
    <defs></defs>
    <g id="Symbols" stroke="none" stroke-width="1" fill="none" fill-rule="evenodd">
        <g id="heart" fill-rule="nonzero">
            <path d="M85.650111,191.494044 C66.8070387,181.415284 48.2850985,166.654777 33.4966676,149.932374 C21.5334011,136.404935 6.26785968,115.015943 1.47999996,89.941712 C-2.90415087,66.9821654 2.52836651,45.0646026 16.7770562,28.2257136 C25.3016166,18.1509429 35.1521932,10.6671695 46.0555244,5.98223165 C54.7021549,2.26707272 63.8083434,0.38296495 73.1207744,0.38296495 C84.2510922,0.38296495 94.1268008,3.04257674 102.123588,6.36798906 C110.120375,3.04257674 119.995684,0.38296495 131.127199,0.38296495 C140.440029,0.38296495 149.546217,2.2666738 158.192449,5.98223165 C169.095381,10.6671695 178.946357,18.1509429 187.471316,28.2261125 C201.720006,45.0654005 207.152124,66.9833622 202.767574,89.9421109 C197.979316,115.015943 182.714173,136.404935 170.751306,149.932374 C155.963274,166.654777 137.440934,181.414885 118.597463,191.494044 L106.445108,197.994475 C103.745205,199.438572 100.502369,199.438572 97.8024665,197.994475 L85.650111,191.494044 Z" id="Shape" fill="#F44D4D"></path>
            <path d="M93.1470488,177.478324 C75.9271894,168.267618 58.9714163,154.745365 45.4032872,139.402832 C34.7576595,127.364568 21.2046895,108.494768 17.0926033,86.9605692 C13.5761075,68.5459389 17.6626626,51.7860364 28.9106623,38.4935624 C44.4466727,20.1327865 61.5277073,16.2784039 73.1207744,16.2784039 C84.8562566,16.2784039 94.9621431,20.1120426 102.123588,23.936905 C109.284633,20.1120426 119.39052,16.2784039 131.127199,16.2784039 C142.720266,16.2784039 159.8013,20.1323876 175.337311,38.4935624 C186.585311,51.7868343 190.671467,68.5467368 187.154971,86.9605692 C183.042885,108.495167 169.489516,127.365366 158.844287,139.403231 C145.276158,154.745764 128.320385,168.268017 111.100525,177.478324 L105.947652,180.234475 C103.558509,181.512222 100.688666,181.512621 98.2995231,180.234475 L93.1470488,177.478324 Z" id="Shape" fill="#CE2E2E"></path>
            <path d="M96.05479,172.042616 C79.4648282,163.168999 63.1166129,150.127047 50.0212063,135.319069 C39.8865974,123.859242 26.9978322,105.966402 23.1478377,85.8040948 C19.992765,69.2807529 23.6125816,54.2976482 33.6167431,42.4748021 C47.6264786,25.9175519 62.8321817,22.442145 73.1211733,22.442145 C85.1466717,22.442145 95.3594693,26.9531529 102.123987,31.0213577 C108.888504,26.952754 119.100504,22.442145 131.127598,22.442145 C141.416589,22.442145 156.621894,25.9175519 170.632028,42.4748021 C180.635791,54.2976482 184.256006,69.2807529 181.100534,85.8040948 C177.25054,105.966402 164.361376,123.859242 154.227166,135.319069 C141.132158,150.126648 124.783943,163.1686 108.193582,172.042217 L105.031728,173.733645 C103.215437,174.705419 101.033733,174.705419 99.2174422,173.733645 L96.05479,172.042616 Z" id="Shape" fill="#FF5F5F"></path>
            <path d="M160.808179,50.7871362 C137.358757,23.0740371 110.985237,39.9532173 103.935491,45.3350716 C102.864386,46.1528614 101.383588,46.1528614 100.312084,45.3350716 C93.2623372,39.9532173 66.8888177,23.0740371 43.4393951,50.7871362 C16.7898217,82.2820141 57.3577775,135.250854 99.1017549,159.026993 C100.972299,160.092513 103.274876,160.092513 105.14542,159.026993 C146.890196,135.250854 187.457753,82.2820141 160.808179,50.7871362 Z" id="SVGCleanerId_0" fill="#A4E7FF"></path>
            <path d="M99.2166444,166.131392 C69.3820791,150.173322 35.9348778,117.025312 29.7324413,84.5466933 C26.9699077,70.0801923 30.0826946,57.0294648 38.7337133,46.8050985 C48.6489152,35.0871689 60.218047,29.1460262 73.1203755,29.1460262 C85.8814857,29.1460262 96.5554369,35.148204 102.123588,39.0297133 C107.69134,35.148204 118.364493,29.1460262 131.127199,29.1460262 C144.029527,29.1460262 155.599058,35.0871689 165.513861,46.8050985 C174.165279,57.0290659 177.277667,70.0801923 174.515133,84.5466933 C168.313095,117.025312 134.865894,150.173322 105.03093,166.131392 L105.03093,166.131392 C103.215038,167.103166 101.032935,167.103166 99.2166444,166.131392 L99.2166444,166.131392 Z" id="Shape" fill="#F44D4D"></path>
            <path d="M160.808179,50.7871362 C137.358757,23.0740371 110.985237,39.9532173 103.935491,45.3350716 C102.864386,46.1528614 101.383588,46.1528614 100.312084,45.3350716 C93.2623372,39.9532173 66.8888177,23.0740371 43.4393951,50.7871362 C16.7898217,82.2820141 57.3577775,135.250854 99.1017549,159.026993 C100.972299,160.092513 103.274876,160.092513 105.14542,159.026993 C146.890196,135.250854 187.457753,82.2820141 160.808179,50.7871362 Z" id="SVGCleanerId_0_1_" fill="#A4E7FF"></path>
            <g id="Group" transform="translate(62.630726, 74.598381)" fill="#3DA2C6">
                <path d="M25.0893902,32.0019075 C24.4543067,32.0019075 23.814436,31.8064358 23.2639239,31.4011313 L1.45486789,15.338943 C0.0841725046,14.3292719 -0.208636113,12.4000859 0.80103502,11.0293906 C1.81030723,9.65829625 3.73989209,9.36628547 5.11058747,10.3755577 L26.9196435,26.437746 C28.2903389,27.4474171 28.5831475,29.376603 27.5734764,30.7472984 C26.9695087,31.5678806 26.0356328,32.0019075 25.0893902,32.0019075 Z" id="Shape"></path>
                <path d="M36.31146,31.8499183 C35.8921932,31.8499183 35.4661446,31.7637512 35.0584465,31.5822418 C33.5038482,30.8893146 32.8049372,29.0670397 33.4978644,27.5120424 L43.1888722,5.76880848 C43.8817994,4.21421013 45.7036754,3.51569802 47.2590716,4.20822631 C48.8136699,4.90115351 49.5125809,6.7234284 48.8196537,8.27842566 L39.1286459,30.0216596 C38.6172281,31.1689588 37.4910718,31.8499183 36.31146,31.8499183 Z" id="Shape"></path>
                <path d="M77.9971948,16.9521829 C77.5527959,16.9521829 77.1016153,16.8556438 76.6735722,16.6517947 L54.7524191,6.20722356 C53.2157722,5.47480309 52.563535,3.63577349 53.2955566,2.09872771 C54.0279771,0.562080848 55.8666077,-0.0897574101 57.4040524,0.641865213 L79.3252055,11.0864364 C80.8618524,11.8188568 81.5140896,13.6578864 80.782068,15.1949322 C80.2538955,16.3039349 79.1488821,16.9521829 77.9971948,16.9521829 Z" id="Shape"></path>
            </g>
            <g id="Group" transform="translate(52.657681, 74.199459)" fill="#25D8A1">
                <circle id="Oval" cx="8.38533671" cy="8.44517499" r="8.21938523"></circle>
                <circle id="Oval" cx="40.7299181" cy="33.1623711" r="8.21938523"></circle>
            </g>
            <circle id="Oval" fill="#FFCF4A" cx="112.236655" cy="75.7991355" r="8.21938523"></circle>
            <circle id="Oval" fill="#25D8A1" cx="147.477409" cy="90.7267901" r="8.21938523"></circle>
        </g>
    </g>
</svg>