<?xml version="1.0" encoding="UTF-8"?>
<svg width="200px" height="200px" viewBox="0 0 200 200" version="1.1" xmlns="http://www.w3.org/2000/svg" xmlns:xlink="http://www.w3.org/1999/xlink">
    <!-- Generator: Sketch 45.1 (43504) - http://www.bohemiancoding.com/sketch -->
    <title>technology</title>
    <desc>Created with Sketch.</desc>
    <defs></defs>
    <g id="Symbols" stroke="none" stroke-width="1" fill="none" fill-rule="evenodd">
        <g id="technology" fill-rule="nonzero">
            <path d="M195.233171,34.8075076 L195.233171,154.980914 C195.233171,160.457943 190.792978,164.898137 185.315948,164.898137 L13.8063298,164.898137 C8.32930046,164.898137 3.889107,160.457943 3.889107,154.980914 L3.889107,34.8075076 C3.889107,29.3304782 8.32930046,24.8902848 13.8063298,24.8902848 L185.315948,24.8902848 C190.792978,24.8902848 195.233171,29.3304782 195.233171,34.8075076 Z" id="Shape" fill="#EDF2FA"></path>
            <g id="Group" transform="translate(49.780570, 16.334249)" fill="#72D8FF">
                <polyline id="Shape" points="38.7183936 68.4482832 0 68.4482832 0 123.026844 99.5611392 123.026844 99.5611392 68.4482832 60.8427455 68.4482832"></polyline>
                <rect id="Rectangle-path" x="12.4451424" y="0" width="74.6708544" height="52.8918552"></rect>
                <rect id="Rectangle-path" x="15.556428" y="95.0264404" width="68.4482832" height="28.0015704"></rect>
            </g>
            <path d="M3.889107,139.361093 L3.889107,154.980914 C3.889107,160.457943 8.32930046,164.898137 13.8063298,164.898137 L185.315948,164.898137 C190.792978,164.898137 195.233171,160.457943 195.233171,154.980914 L195.233171,139.361093 L3.889107,139.361093 Z" id="Shape" fill="#4DBAF6"></path>
            <rect id="Rectangle-path" fill="#D8D8E4" x="84.7825326" y="164.898137" width="29.5572132" height="30.3350346"></rect>
            <g id="Group" transform="translate(48.613837, 3.889107)" fill="#B3B6C3">
                <path d="M50.9473017,91.256729 L50.9473017,91.256729 C44.9331866,91.256729 40.0578021,86.3813444 40.0578021,80.3672294 L40.0578021,65.3369976 L61.8368013,65.3369976 L61.8368013,80.3672294 C61.8368013,86.3813444 56.9614167,91.256729 50.9473017,91.256729 Z" id="Shape"></path>
                <rect id="Rectangle-path" x="38.5021593" y="0" width="24.8902848" height="12.4451424"></rect>
                <path d="M97.157671,29.5039324 L88.3371764,29.5039324 L88.3371764,48.171646 L97.157671,48.171646 C99.1593944,48.171646 100.782319,46.5487217 100.782319,44.5469983 L100.782319,33.1285801 C100.782319,31.1268568 99.1593944,29.5039324 97.157671,29.5039324 Z" id="Shape"></path>
                <path d="M3.79810189,48.171646 L12.6185966,48.171646 L12.6185966,29.5039324 L3.79810189,29.5039324 C1.79637852,29.5039324 0.173454172,31.1268568 0.173454172,33.1285801 L0.173454172,44.5469983 C0.173454172,46.5491106 1.79637852,48.171646 3.79810189,48.171646 Z" id="Shape"></path>
            </g>
            <g id="Group" transform="translate(31.501767, 84.782533)" fill="#72D8FF">
                <path d="M13.7196028,27.3548119 L18.2788029,27.3548119 L18.2788029,0 L13.7196028,0 C6.16579023,0 0.0420023556,6.12378788 0.0420023556,13.6776004 L0.0420023556,13.6776004 C0.0420023556,21.2314129 6.16579023,27.3548119 13.7196028,27.3548119 Z" id="Shape"></path>
                <path d="M122.399142,27.3548119 L117.839942,27.3548119 L117.839942,0 L122.399142,0 C129.952955,0 136.076743,6.12378788 136.076743,13.6776004 L136.076743,13.6776004 C136.076743,21.2314129 129.952955,27.3548119 122.399142,27.3548119 Z" id="Shape"></path>
            </g>
            <rect id="Rectangle-path" fill="#FF5D5D" x="65.3369976" y="111.36069" width="68.4482832" height="28.0015704"></rect>
            <path d="M185.315948,21.0011778 L158.460109,21.0011778 C156.312155,21.0011778 154.571002,22.7427199 154.571002,24.8902848 C154.571002,27.0378497 156.312155,28.7793918 158.460109,28.7793918 L185.315948,28.7793918 C188.639968,28.7793918 191.344064,31.4834879 191.344064,34.8075076 L191.344064,135.471986 L183.56585,135.471986 L183.56585,119.853722 C183.56585,117.706157 181.824697,115.964615 179.676743,115.964615 C177.52879,115.964615 175.787636,117.706157 175.787636,119.853722 L175.787636,135.471986 L171.46995,135.471986 L171.46995,98.460133 C171.46995,98.4270756 171.465672,98.394796 171.464894,98.3617386 C171.411613,88.7206423 163.554061,80.8934256 153.900909,80.8934256 L114.339746,80.8934256 L114.339746,73.1152116 L136.896566,73.1152116 C139.04452,73.1152116 140.785673,71.3736695 140.785673,69.2261046 L140.785673,55.94986 L145.771509,55.94986 C149.914574,55.94986 153.285263,52.579171 153.285263,48.4364942 L153.285263,37.0180761 C153.285263,32.8750104 149.914574,29.5043213 145.771509,29.5043213 L140.785673,29.5043213 L140.785673,16.3342494 C140.785673,14.1866845 139.04452,12.4451424 136.896566,12.4451424 L115.895389,12.4451424 L115.895389,3.889107 C115.895389,1.74154211 114.154235,0 112.006282,0 L87.1159968,0 C84.968043,0 83.2268898,1.74154211 83.2268898,3.889107 L83.2268898,12.4451424 L62.225712,12.4451424 C60.0777582,12.4451424 58.336605,14.1866845 58.336605,16.3342494 L58.336605,29.5039324 L52.4119394,29.5039324 C48.2688737,29.5039324 44.8981847,32.8746215 44.8981847,37.0176871 L44.8981847,48.4361053 C44.8981847,52.5787821 48.2688737,55.9494711 52.4119394,55.9494711 L58.336605,55.9494711 L58.336605,69.2261046 C58.336605,71.3736695 60.0777582,73.1152116 62.225712,73.1152116 L84.7825326,73.1152116 L84.7825326,80.8934256 L45.2213694,80.8934256 C35.5351596,80.8934256 27.655051,88.7739231 27.655051,98.460133 C27.655051,99.8123755 27.8137265,101.127283 28.1042428,102.392798 L28.1042428,135.471986 L7.778214,135.471986 L7.778214,34.8075076 C7.778214,31.4834879 10.4823101,28.7793918 13.8063298,28.7793918 L40.6575024,28.7793918 C42.8054562,28.7793918 44.5466094,27.0378497 44.5466094,24.8902848 C44.5466094,22.7427199 42.8054562,21.0011778 40.6575024,21.0011778 L13.8063298,21.0011778 C6.19340289,21.0011778 0,27.1945807 0,34.8075076 L0,154.980914 C0,162.593841 6.19340289,168.787244 13.8063298,168.787244 L80.8934256,168.787244 L80.8934256,191.344064 L67.708575,191.344064 C65.5606212,191.344064 63.819468,193.085606 63.819468,195.233171 C63.819468,197.380736 65.5606212,199.122278 67.708575,199.122278 L84.7825326,199.122278 L114.339746,199.122278 L131.413703,199.122278 C133.561657,199.122278 135.30281,197.380736 135.30281,195.233171 C135.30281,193.085606 133.561657,191.344064 131.413703,191.344064 L118.228853,191.344064 L118.228853,168.787244 L185.315948,168.787244 C192.928875,168.787244 199.122278,162.593841 199.122278,154.980914 L199.122278,34.8075076 C199.122278,27.1945807 192.928875,21.0011778 185.315948,21.0011778 Z M140.840121,37.2821464 L145.507049,37.2821464 L145.507049,48.171646 L140.840121,48.171646 L140.840121,37.2821464 Z M57.343327,48.171646 L52.6763986,48.171646 L52.6763986,37.2821464 L57.343327,37.2821464 L57.343327,48.171646 Z M153.230816,135.471986 L153.230816,116.02684 L153.900909,116.02684 C157.522834,116.02684 160.892357,114.924279 163.691736,113.038062 L163.691736,135.471986 L153.230816,135.471986 Z M163.689402,98.460133 C163.689402,103.857436 159.298212,108.248626 153.901298,108.248626 L153.230816,108.248626 L153.230816,88.6716396 L153.900909,88.6716396 C159.298212,88.6716396 163.689402,93.0628303 163.689402,98.460133 Z M145.452602,112.137733 L145.452602,135.471986 L137.674388,135.471986 L137.674388,111.359912 C137.674388,109.212347 135.933235,107.470805 133.785281,107.470805 L114.339746,107.470805 C112.191792,107.470805 110.450639,109.212347 110.450639,111.359912 C110.450639,113.507477 112.191792,115.249019 114.339746,115.249019 L129.896174,115.249019 L129.896174,135.471986 L69.2261046,135.471986 L69.2261046,115.249019 L83.6158005,115.249019 C85.7637543,115.249019 87.5049075,113.507477 87.5049075,111.359912 C87.5049075,109.212347 85.7637543,107.470805 83.6158005,107.470805 L65.3369976,107.470805 C63.1890438,107.470805 61.4478906,109.212347 61.4478906,111.359912 L61.4478906,135.471986 L53.6696766,135.471986 L53.6696766,112.137733 L53.6696766,88.6716396 L85.4569037,88.6716396 C87.3388426,94.6705871 92.9496573,99.0345541 99.5611392,99.0345541 C106.172621,99.0345541 111.783436,94.6701982 113.665375,88.6716396 L145.452602,88.6716396 L145.452602,112.137733 Z M91.0051038,7.778214 L108.117175,7.778214 L108.117175,12.4451424 L91.0051038,12.4451424 L91.0051038,7.778214 Z M66.114819,20.2233564 L87.1159968,20.2233564 L112.006282,20.2233564 L133.007459,20.2233564 L133.007459,65.3369976 L110.450639,65.3369976 L88.6716396,65.3369976 L66.114819,65.3369976 L66.114819,20.2233564 Z M106.561532,73.1152116 L106.561532,84.2559475 C106.561532,88.1158862 103.421078,91.2563401 99.5611392,91.2563401 C95.7012005,91.2563401 92.5607466,88.1158862 92.5607466,84.2559475 L92.5607466,73.1152116 L106.561532,73.1152116 Z M45.2213694,88.6716396 L45.8914626,88.6716396 L45.8914626,108.248626 L45.2213694,108.248626 C40.8453462,108.248626 37.1312491,105.361742 35.8824568,101.392909 L35.8824568,98.460133 C35.8824568,97.9074909 35.7653947,97.3828503 35.5577164,96.9068236 C36.3044249,92.24534 40.3525964,88.6716396 45.2213694,88.6716396 Z M35.8824568,113.3278 C38.5900531,115.034729 41.7911771,116.02684 45.2213694,116.02684 L45.8914626,116.02684 L45.8914626,135.471986 L35.8824568,135.471986 L35.8824568,113.3278 Z M110.450639,191.344064 L88.6716396,191.344064 L88.6716396,168.787244 L110.450639,168.787244 L110.450639,191.344064 Z M185.315948,161.00903 L13.8063298,161.00903 C10.4823101,161.00903 7.778214,158.304934 7.778214,154.980914 L7.778214,143.2502 L191.344064,143.2502 L191.344064,154.980914 C191.344064,158.304934 188.639968,161.00903 185.315948,161.00903 Z" id="Shape" fill="#000000"></path>
            <path d="M99.5448049,147.705561 C97.3968511,147.705561 95.6556979,149.447104 95.6556979,151.594668 C95.6556979,153.742233 97.3968511,155.483775 99.5448049,155.483775 L99.5778623,155.483775 C101.725816,155.483775 103.450635,153.742233 103.450635,151.594668 C103.450635,149.447104 101.69237,147.705561 99.5448049,147.705561 Z" id="Shape" fill="#000000"></path>
            <path d="M89.0177701,34.4341534 C89.0177701,33.4113182 88.6055247,32.4079286 87.8782617,31.6845547 C87.1548878,30.9611808 86.1514982,30.5450464 85.1286631,30.5450464 C84.1058279,30.5450464 83.1024383,30.9607919 82.3790644,31.6845547 C81.6556905,32.4083175 81.2395561,33.4113182 81.2395561,34.4341534 C81.2395561,35.4569885 81.6556905,36.4603781 82.3790644,37.1833631 C83.1024383,37.906737 84.1058279,38.3232604 85.1286631,38.3232604 C86.1514982,38.3232604 87.1548878,37.9071259 87.8782617,37.1833631 C88.6055247,36.4603781 89.0177701,35.4569885 89.0177701,34.4341534 Z" id="Shape" fill="#000000"></path>
            <path d="M114.133623,38.3232604 C115.156458,38.3232604 116.159848,37.9071259 116.883222,37.1833631 C117.606596,36.4603781 118.02273,35.4569885 118.02273,34.4341534 C118.02273,33.4113182 117.606596,32.4079286 116.883222,31.6845547 C116.159848,30.9611808 115.156458,30.5450464 114.133623,30.5450464 C113.106899,30.5450464 112.103509,30.9607919 111.380135,31.6845547 C110.656761,32.4079286 110.244516,33.4113182 110.244516,34.4341534 C110.244516,35.4569885 110.656761,36.4603781 111.380135,37.1833631 C112.107398,37.9071259 113.106899,38.3232604 114.133623,38.3232604 Z" id="Shape" fill="#000000"></path>
            <path d="M107.809157,56.1933181 C109.957111,56.1933181 111.698264,54.451776 111.698264,52.3042111 C111.698264,50.1566462 109.957111,48.4151041 107.809157,48.4151041 L91.3135099,48.4151041 C89.1655561,48.4151041 87.4244029,50.1566462 87.4244029,52.3042111 C87.4244029,54.451776 89.1655561,56.1933181 91.3135099,56.1933181 L107.809157,56.1933181 Z" id="Shape" fill="#000000"></path>
            <path d="M99.5611392,107.471583 C98.538304,107.471583 97.5349144,107.883828 96.8115405,108.611091 C96.0881666,109.334465 95.6720322,110.337855 95.6720322,111.36069 C95.6720322,112.383525 96.0881666,113.386915 96.8115405,114.110288 C97.5349144,114.833273 98.538304,115.249797 99.5611392,115.249797 C100.583974,115.249797 101.587364,114.833662 102.310738,114.110288 C103.034112,113.386915 103.450246,112.383525 103.450246,111.36069 C103.450246,110.337855 103.034112,109.334465 102.310738,108.611091 C101.587364,107.883439 100.583974,107.471583 99.5611392,107.471583 Z" id="Shape" fill="#000000"></path>
            <path d="M179.676743,108.315519 C180.699578,108.315519 181.702968,107.899385 182.426342,107.176011 C183.149716,106.452637 183.56585,105.449247 183.56585,104.426412 C183.56585,103.403577 183.149716,102.400187 182.426342,101.676813 C181.702968,100.953828 180.699578,100.537305 179.676743,100.537305 C178.653908,100.537305 177.650519,100.953439 176.927145,101.676813 C176.203771,102.400187 175.787636,103.403577 175.787636,104.426412 C175.787636,105.449247 176.203771,106.452637 176.927145,107.176011 C177.650519,107.898996 178.653908,108.315519 179.676743,108.315519 Z" id="Shape" fill="#000000"></path>
        </g>
    </g>
</svg>